# xmcd
# Copyright (C) 1995-1998 Ti Kan
#
# Track frame offsets:
#       182
#       12992
#       38677
#       55930
#       77075
#       93995
#       103645
#       124695
#       146990
#       157905
#       170367
#       183332
#       193887
#       207290
#       225225
#       236485
#       256677
#       272032
#       287552
#       303962
#
# Disc length: 4216 seconds
#
# Revision: 0
# Processed by: cddbd v1.5.1PL0 Copyright (c) Steve Scherf et al.
# Submitted via: CD-Transfer v1.0
#
DISCID=06107614
DTITLE=Fred Astaire - 
DYEAR=90
DGENRE=
TTITLE0=Puttin' on the Ritz
TTITLE1=Cheek to cheek
TTITLE2=Top hat, white tie and tails
TTITLE3=Dancing in the dark
TTITLE4=A fine romance
TTITLE5=Nice work if you can get it
TTITLE6=Let's call the whole thing off
TTITLE7=Night and day
TTITLE8=Steppin' out with my baby
TTITLE9=I concentrate on you
TTITLE10=I won't dance
TTITLE11=A needle in the haystack
TTITLE12='S wonderful
TTITLE13=A foggy day
TTITLE14=New sun in the sky
TTITLE15=Carioca
TTITLE16=You're easy to dance with
TTITLE17=The continental
TTITLE18=They can't take that away from me
TTITLE19=Fascinating rhythm
EXTD=
EXTT0=
EXTT1=
EXTT2=
EXTT3=
EXTT4=
EXTT5=
EXTT6=
EXTT7=
EXTT8=
EXTT9=
EXTT10=
EXTT11=
EXTT12=
EXTT13=
EXTT14=
EXTT15=
EXTT16=
EXTT17=
EXTT18=
EXTT19=
PLAYORDER=
